<mxfile host="app.diagrams.net" modified="2023-04-01T08:32:37.147Z" agent="Mozilla/5.0 (Macintosh; Intel Mac OS X 10_15_7) AppleWebKit/537.36 (KHTML, like Gecko) Chrome/111.0.0.0 Safari/537.36" version="21.1.2" etag="MW2Jm6LXWdIoHnavxZi-" type="github">
  <diagram name="第 1 页" id="UbA9IWjF-_QlNe3pDrM4">
    <mxGraphModel>
      <root>
        <mxCell id="0" />
        <mxCell id="1" parent="0" />
      </root>
    </mxGraphModel>
  </diagram>
</mxfile>
